<svg xmlns="http://www.w3.org/2000/svg" viewBox="0 0 2934.4 138"><defs><style>.cls-1{fill:#fff;}</style></defs><title>top_wave</title><g id="レイヤー_2" data-name="レイヤー 2"><g id="back"><path class="cls-1" d="M.42,73.37,0,72.46C46.26,51,98.35,35.27,154.83,25.78c51-8.56,105.85-12.13,163.06-10.61,9.34.25,18.86.63,28.92,1.16C238.2-3.65,115.49-.09.32,26.46l-.22-1C118-1.71,243.87-4.81,354.42,16.75l-.12,1c-12.88-.75-24.8-1.26-36.44-1.57-57.14-1.52-111.94,2-162.87,10.6C98.6,36.24,46.6,51.92.42,73.37Z"/><path class="cls-1" d="M1010.34,127.44c-193.15,0-390.74-30.73-585-91.78a659.78,659.78,0,0,0-71.08-17.93l.13-1c84.52,4.9,169.72,18.6,252.1,31.85,47.72,7.67,97.07,15.61,145.77,21.75,93.19,11.75,207.41,13.79,330.32,5.89s245.81-25.21,355-50c131.87-30,362.24-38.38,495-3.12l-.18,1c-40.19-4.4-76.48-7-110.93-7.9-122.58-3.27-269.17,31.52-376.21,56.92-20.22,4.8-39.31,9.33-56.38,13.16C1266.2,113.75,1139.25,127.44,1010.34,127.44ZM361.57,18.18a655.69,655.69,0,0,1,64,16.53c194.17,61,391.7,91.73,584.73,91.73,128.86,0,255.69-13.68,378.27-41.17,17.07-3.83,36.16-8.36,56.37-13.15,107.09-25.42,253.76-60.24,376.47-56.95,32.5.87,66.64,3.22,104.14,7.17-133.53-33.22-358.25-24.6-487.82,4.84l-.11-.48.11.48c-109.24,24.83-232,42.14-355.16,50.05s-237.25,5.86-330.51-5.9C703.39,65.19,654,57.25,606.3,49.58,526.3,36.71,443.66,23.42,361.57,18.18Z"/><path class="cls-1" d="M2546.72,138q-68.82,0-140.18-7.17c-133.29-13.36-278.64-45.74-457.42-101.92-5.18-1.63-10.85-3.26-16.85-4.85l.19-1c59.34,6.49,119.42,16.16,177.52,25.5,47.74,7.68,97.1,15.61,145.81,21.76,92.81,11.7,193,14.71,297.71,9,101-5.56,208.89-19.43,320.8-41.22,14.82-2.89,59.35-12.49,59.8-12.59l.21,1c-.45.09-45,9.7-59.82,12.59-111.95,21.8-219.93,35.67-320.94,41.24-104.79,5.77-205,2.75-297.89-9-48.73-6.15-98.09-14.09-145.84-21.76-56-9-113.86-18.32-171.11-24.79,3.75,1,7.33,2.12,10.71,3.18,178.71,56.15,324,88.52,457.21,101.87,162.61,16.29,313.61,4.86,461.63-34.94,33-8.89,65.43-22.31,65.75-22.44l.39.92c-.33.14-32.76,13.58-65.88,22.49C2763.76,124,2657.51,138,2546.72,138Z"/></g></g></svg>