<?xml version="1.0" encoding="utf-8"?>
<!-- Generator: Adobe Illustrator 24.0.3, SVG Export Plug-In . SVG Version: 6.00 Build 0)  -->
<svg version="1.1" id="レイヤー_1" xmlns="http://www.w3.org/2000/svg" xmlns:xlink="http://www.w3.org/1999/xlink" x="0px"
	 y="0px" viewBox="0 0 50 65.9" style="enable-background:new 0 0 50 65.9;" xml:space="preserve">
<style type="text/css">
	.st0{fill:none;}
	.st1{fill:#B1DEE9;}
	.st2{fill:#C9E7ED;}
	.st3{fill:#64BAE7;}
</style>
<g>
	<path class="st0" d="M34.5,17.4c-2-2.9-5.3-4.1-8.9-4.8c-4.1,0-7.8,0-12.2,0v12c0.1,0.1,0.1,0.1,0.1,0.1c1.4-0.1,2.8-0.1,4.3-0.1
		c6.7-0.1,12.8,0.4,18.1,1.1c0.1-0.4,0.1-0.9,0.2-1.4C36.2,23.1,36.4,20.1,34.5,17.4z"/>
	<path class="st1" d="M38.3,25.7c0.4-0.9,2.8-6.6,0.1-10.1c-1-1.4-2.7-3-8.8-3c-1.4,0-2.7,0-4,0c3.6,0.7,6.9,1.9,8.9,4.8
		c1.8,2.7,1.7,5.7,1.6,6.9c0,0.5-0.1,0.9-0.2,1.4c0,0,0,0,0.1,0c0.2,0,0.4,0.1,0.5,0.2c0.5,0.4,0.5,1.4,0,1.8
		c-0.1,0.1-0.2,0.1-0.5,0.1c-0.2,0-0.4,0-0.6,0c-0.5,1.5-1.2,2.7-1.9,3.7C35.5,30,37.2,28.2,38.3,25.7z"/>
	<path class="st1" d="M35.2,52.7c1-0.4,5.3-2.2,7.6-6.5c3.3-6.3,0.1-12.5-0.2-13.1c-2.5,1-3.7,1.8-5.9,3.3c1.8,2.9,1.9,5.2,1.8,6.4
		c-0.3,4.6-4.1,8.9-9.9,11.3c0.3,0,0.6,0,0.9-0.1C29.9,54,32.7,53.7,35.2,52.7z"/>
	<polygon class="st2" points="42.6,33.1 42.6,33.1 42.6,33.1 	"/>
	<path class="st3" d="M0.8,32.9c2-0.7,4.1-1.3,6.4-2c2.2-0.6,4.3-1.1,6.3-1.5c0,0,0,0,0,0c0.7-0.1,1.4-0.3,2.1-0.4
		c7.6-1.3,14.4-1.6,19.9-1.4c0.2,0,0.4,0,0.6,0c0.2,0,0.4-0.1,0.5-0.1c0.5-0.3,0.5-1.4,0-1.8c-0.2-0.1-0.4-0.2-0.5-0.2
		c0,0,0,0-0.1,0c-5.4-0.7-11.4-1.2-18.1-1.1c-1.5,0-2.9,0.1-4.3,0.1c-0.1-0.1-0.1-0.1-0.1-0.1v-12c4.5,0,8.1,0,12.2,0
		c1.3,0,2.6,0,4,0c6.1,0,7.8,1.6,8.8,3c2.7,3.6,0.3,9.2-0.1,10.1c-1.1,2.5-2.9,4.3-4.8,5.7c-4.7,3.4-10.6,4.1-11.4,4.2
		c3.1,0.2,10.7,0.4,17.3-4.6c1.2-0.9,3.2-2.5,4.8-5.3c2.7-4.8,3.4-12-0.7-17.9c-5.2-7.7-14.5-7.3-15-7.3H1.1C0.2,0.5-0.5,1.2-0.5,2
		v31.3C0,33.2,0.4,33,0.8,32.9C0.8,32.9,0.8,32.9,0.8,32.9z"/>
	<path class="st3" d="M46.1,37.2c-1.3-1.9-2.6-3.3-3.5-4.1l0,0c0.3,0.6,3.5,6.8,0.2,13.1c-2.3,4.3-6.6,6.1-7.6,6.5
		c-2.6,1.1-5.4,1.3-5.8,1.4c-0.3,0-0.6,0-0.9,0.1c-0.6,0-1.2,0-1.6,0c-4.5,0-9,0-13.4,0l0-16.5C11,38.3,8.3,39.3,5.4,41
		c-2.4,1.4-4.3,2.8-5.8,4.2v19.6c0,0.9,0.7,1.5,1.5,1.5H25c2.4,0.1,12.8,0.4,19.7-6.9c1-1,3-3.3,4.1-6.8
		C51.1,45.3,47.1,38.7,46.1,37.2z"/>
</g>
</svg>
